<svg width="500" height="400" xmlns="http://www.w3.org/2000/svg" xmlns:svg="http://www.w3.org/2000/svg">
 <g>
  <title>Layer 1</title>
  <polygon fill="#ffffff" points="277.752685546875,106.91651153564453 147.4346160888672,204.7645263671875 199.38768005371094,396.9935302734375 340.5316162109375,379.2425231933594 482.9686279296875,313.0005187988281 418.025634765625,129.4315185546875 " id="svg_2"/>
  <polygon fill="#ffffff" points="344.858642578125,322.0935363769531 482.9686279296875,313.0005187988281 340.5316162109375,379.2425231933594 199.38768005371094,396.9935302734375 " id="svg_3"/>
  <polygon fill="#ffffff" points="418.025634765625,129.4315185546875 381.5126953125,101.41451263427734 356.7186279296875,119.59151458740234 405.03466796875,137.33151245117188 " id="svg_4"/>
  <g id="svg_5">
   <path fill="#ffffff" d="m226.38763,128.16452l-3.438,-1.205c1.915,-5.461 1.295,-18.268 -0.566,-23.841c-6.033,-18.068 -30.53,-32.329 -49.676,-39.05c-16.299,-5.722 -31.609,-0.95 -47.817,4.103c-9.499,2.963 -19.322,6.026 -29.401,6.809c-1.687,0.131 -3.39,0.196 -5.091,0.197c-34.045,0.002 -70.275,-25.777 -82.529,-59.595l3.424,-1.24c12.346,34.072 49.982,59.651 83.915,57.008c9.669,-0.752 19.293,-3.753 28.6,-6.655c16.057,-5.008 32.665,-10.188 50.107,-4.063c20.877,7.329 45.479,22.037 51.925,41.333c2.091,6.269 2.768,19.861 0.547,26.199z" id="svg_6"/>
  </g>
  <g id="svg_7">
   <path fill="#ffffff" d="m256.34663,113.06052c-3.25,-0.601 -6.441,-1.153 -9.58,-1.696c-20.771,-3.595 -38.71,-6.699 -57.089,-20.473c-13.927,-10.437 -24.084,-23.098 -34.839,-36.501c-3.559,-4.433 -7.237,-9.018 -11.032,-13.472c-18.4,-21.587 -44.671,-34.831 -72.075,-36.335l0.125,-2.273c28.023,1.539 54.879,15.073 73.681,37.133c3.819,4.479 7.509,9.077 11.077,13.523c10.661,13.289 20.733,25.84 34.43,36.105c17.94,13.445 35.63,16.506 56.111,20.051c3.147,0.545 6.347,1.098 9.606,1.702l-0.415,2.236z" id="svg_8"/>
  </g>
  <polygon fill="#efefef" points="277.752685546875,106.91651153564453 344.858642578125,322.0935363769531 482.9686279296875,313.0005187988281 418.025634765625,129.4315185546875 " id="svg_9"/>
  <polygon fill="#ffffff" points="147.4346160888672,204.7645263671875 162.72764587402344,175.27053833007812 287.1685791015625,75.1095199584961 277.752685546875,106.91651153564453 " id="svg_24"/>
  <path fill="#bababa" d="m222.74563,126.96252l-14.907,32.05c-0.317,0.684 -0.021,1.496 0.662,1.814c0.187,0.087 0.383,0.128 0.575,0.128c0.516,0 1.008,-0.293 1.24,-0.791l17.073,-36.707c0.043,-0.094 0.047,-0.192 0.069,-0.289l-4.712,3.795z" id="svg_25"/>
  <path fill="#bababa" d="m411.60663,346.18852c-0.025,0.001 -0.049,-0.01 -0.074,-0.007l-143.861,14.408l-57.996,-202.428c-0.197,-0.689 -0.914,-1.087 -1.606,-0.891c-0.689,0.197 -1.09,0.917 -0.891,1.606l58.293,203.47c0.16,0.562 0.675,0.941 1.248,0.941c0.043,0 0.086,0 0.131,-0.006l137.642,-13.785l7.114,-3.308z" id="svg_26"/>
  <path fill="#bababa" d="m420.15263,316.80852l-65.523,-197.782l-2.895,-0.48l65.594,197.998l-147.996,71.652l8.056,-1.013l142.097,-68.797c0.586,-0.285 0.873,-0.959 0.667,-1.578z" id="svg_27"/>
  <path fill="#bababa" d="m448.95263,216.85152l-139.072,-6.89c-0.268,-0.014 -0.533,0.056 -0.759,0.2l-136.792,86.717l0.7,2.593c0.071,-0.029 0.145,-0.052 0.211,-0.095l136.925,-86.802l139.402,6.908c0.104,0.004 0.2,-0.028 0.3,-0.048l-0.915,-2.583z" id="svg_28"/>
 </g>
</svg>